<svg xmlns="http://www.w3.org/2000/svg" viewBox="0 0 1600 900" role="img" aria-labelledby="t d"><title id="t">Electrical building services engineering visualization</title><desc id="d">Architectural building wireframe with lighting, power, fire alarm, ELV, earthing and electrical riser overlays.</desc><defs><pattern id="g" width="40" height="40" patternUnits="userSpaceOnUse"><path d="M40 0H0V40" fill="none" stroke="#fff" stroke-opacity=".05"/></pattern><filter id="gl"><feGaussianBlur stdDeviation="4"/></filter></defs><rect width="1600" height="900" fill="#080808"/><rect width="1600" height="900" fill="url(#g)"/><g stroke="#fff" fill="none"><g opacity=".18" stroke-width="2"><path d="M350 700 800 180l470 240-470 300Z"/><path d="M430 620 800 250l390 200-390 250Z"/><path d="M505 545 800 325l310 155-310 200Z"/><path d="M585 470 800 390l230 120-230 145Z"/><path d="M350 700v-310l450-210v540M1270 420v310L800 720"/><path d="M430 620v-260M505 545v-240M585 470v-190M1190 450v250M1110 480v200M1030 510v145"/></g><g stroke-width="3" opacity=".8"><path d="M430 610h150v-90h120v-110h160v120h155v100h140"/><path d="M480 470h120v-95h190v-85h180v150h120"/><path d="M540 675h110v-80h150v-70h170v90h160"/></g><g stroke-width="2" opacity=".6"><circle cx="580" cy="520" r="13"/><circle cx="700" cy="410" r="13"/><circle cx="860" cy="530" r="13"/><circle cx="970" cy="440" r="13"/><circle cx="650" cy="595" r="13"/><circle cx="970" cy="615" r="13"/><path d="M580 507v-24m-12 12h24M700 397v-24m-12 12h24M860 517v-24m-12 12h24M970 427v-24m-12 12h24"/></g><g stroke-width="4"><path d="M800 705V265"/><path d="M780 295h40M780 355h40M780 415h40M780 475h40M780 535h40M780 595h40M780 655h40"/></g><g opacity=".38" stroke-dasharray="10 12"><path d="M290 760 800 705 1320 760"/><path d="M280 330 800 265 1330 330"/></g></g><g fill="#fff"><circle cx="800" cy="265" r="7"/><circle cx="800" cy="355" r="7"/><circle cx="800" cy="475" r="7"/><circle cx="800" cy="595" r="7"/><circle cx="580" cy="520" r="5"/><circle cx="700" cy="410" r="5"/><circle cx="860" cy="530" r="5"/><circle cx="970" cy="440" r="5"/></g><g fill="#fff" opacity=".58" font-family="Arial,sans-serif" font-size="22" letter-spacing="3"><text x="90" y="110">LIGHTING / POWER / FIRE / ELV</text><text x="90" y="145">EARTHING / RISER / SLD</text></g><g opacity=".18" filter="url(#gl)"><ellipse cx="820" cy="540" rx="430" ry="140" fill="#fff"/></g></svg>