<svg xmlns="http://www.w3.org/2000/svg" width="1200" height="675"><rect width="1200" height="675" fill="#f8fafc"/><rect x="95" y="65" width="1010" height="545" rx="24" fill="#fff" stroke="#cbd5e1"/><text x="600" y="120" text-anchor="middle" font-family="Arial" font-size="32" font-weight="700" fill="#0f172a">ELECTRICAL DRAWING QA</text><g font-family="Arial" font-size="22" fill="#0f172a"><g><rect x="165" y="180" width="38" height="38" rx="7" fill="#dcfce7" stroke="#22c55e"/><path d="M175 199l9 10 19-23" stroke="#16a34a" stroke-width="5" fill="none"/><text x="230" y="207">Sheet naming & scope</text></g><g><rect x="165" y="255" width="38" height="38" rx="7" fill="#dcfce7" stroke="#22c55e"/><path d="M175 274l9 10 19-23" stroke="#16a34a" stroke-width="5" fill="none"/><text x="230" y="282">Plan / riser consistency</text></g><g><rect x="165" y="330" width="38" height="38" rx="7" fill="#dcfce7" stroke="#22c55e"/><path d="M175 349l9 10 19-23" stroke="#16a34a" stroke-width="5" fill="none"/><text x="230" y="357">Dedicated loads & protection</text></g><g><rect x="625" y="180" width="38" height="38" rx="7" fill="#dcfce7" stroke="#22c55e"/><path d="M635 199l9 10 19-23" stroke="#16a34a" stroke-width="5" fill="none"/><text x="690" y="207">Fire / ELV separation</text></g><g><rect x="625" y="255" width="38" height="38" rx="7" fill="#dcfce7" stroke="#22c55e"/><path d="M635 274l9 10 19-23" stroke="#16a34a" stroke-width="5" fill="none"/><text x="690" y="282">Earthing & bonding</text></g><g><rect x="625" y="330" width="38" height="38" rx="7" fill="#dcfce7" stroke="#22c55e"/><path d="M635 349l9 10 19-23" stroke="#16a34a" stroke-width="5" fill="none"/><text x="690" y="357">Print readability</text></g></g><rect x="180" y="450" width="840" height="90" rx="18" fill="#eff6ff" stroke="#93c5fd"/><text x="600" y="505" text-anchor="middle" font-family="Arial" font-size="24" font-weight="700" fill="#1e3a8a">Cross-sheet coordination is the final quality gate.</text></svg>