<svg xmlns="http://www.w3.org/2000/svg" width="1200" height="675"><rect width="1200" height="675" fill="#f8fafc"/><rect x="70" y="70" width="1060" height="535" rx="24" fill="#fff" stroke="#cbd5e1"/><text x="600" y="125" text-anchor="middle" font-family="Arial" font-size="32" font-weight="700">LIGHTING vs POWER</text><rect x="125" y="180" width="420" height="320" rx="20" fill="#eff6ff" stroke="#60a5fa"/><rect x="655" y="180" width="420" height="320" rx="20" fill="#fefce8" stroke="#facc15"/><g font-family="Arial" fill="#0f172a"><text x="335" y="225" text-anchor="middle" font-size="26" font-weight="700">LIGHTING</text><text x="865" y="225" text-anchor="middle" font-size="26" font-weight="700">POWER</text></g><g stroke="#2563eb" stroke-width="5"><line x1="190" y1="300" x2="480" y2="300"/><line x1="335" y1="260" x2="335" y2="430"/></g><g fill="#2563eb"><circle cx="220" cy="300" r="18"/><circle cx="335" cy="300" r="18"/><circle cx="450" cy="300" r="18"/></g><g fill="none" stroke="#ca8a04" stroke-width="6"><rect x="740" y="280" width="70" height="70"/><rect x="920" y="280" width="70" height="70"/><path d="M775 350V430M955 350V430M775 430H955"/></g><text x="600" y="555" text-anchor="middle" font-family="Arial" font-size="22" fill="#475569">Separate sheets improve readability, circuit tracing and site execution.</text></svg>